<svg xmlns="http://www.w3.org/2000/svg" width="785" height="1080" viewBox="0 0 785 1080" fill="none">
  <path d="M514.88 1135.62C498.558 1135.62 483.185 1128.47 472.72 1115.98C462.255 1103.49 457.82 1087.13 460.662 1071.06L481.247 953.541H55.0819C38.8036 953.541 23.4297 946.392 12.965 933.947C2.45733 921.501 -1.9783 905.137 0.820883 889.117L37.038 679.523C38.7606 669.532 43.1962 660.23 49.8712 652.607L620.474 1.77599C630.938 -10.1528 646.011 -17 661.902 -17H946.987C963.266 -17 978.64 -9.85133 989.147 2.63733C999.655 15.126 1004.05 31.4904 1001.25 47.5534L898.712 635.511H950.002C966.323 635.511 981.697 642.702 992.205 655.191C1002.71 667.68 1007.11 684.087 1004.26 700.193L967.572 908.065C962.921 934.42 940.14 953.584 913.354 953.584H842.556L817.45 1090.53C812.67 1116.67 789.889 1135.66 763.275 1135.66H515.052L514.88 1135.62ZM560.011 635.511L592.18 453.865L440.077 635.511H560.011Z" fill="white" fill-opacity="0.2"/>
</svg>