<svg width="158" height="61" viewBox="0 0 158 61" fill="none" xmlns="http://www.w3.org/2000/svg">
<path d="M22.598 60.9232C21.8817 60.9232 21.2069 60.6094 20.7476 60.0613C20.2883 59.5132 20.0937 58.795 20.2184 58.09L21.1219 52.9319H2.41754C1.70308 52.9319 1.02832 52.6182 0.56903 52.0719C0.107848 51.5257 -0.0868311 50.8074 0.0360247 50.1043L1.62559 40.9053C1.70119 40.4668 1.89587 40.0585 2.18884 39.724L27.2325 11.159C27.6918 10.6355 28.3533 10.335 29.0508 10.335H41.5632C42.2776 10.335 42.9524 10.6487 43.4136 11.1968C43.8748 11.745 44.0675 12.4632 43.9447 13.1682L39.4444 38.9736H41.6955C42.4118 38.9736 43.0866 39.2892 43.5478 39.8374C44.0089 40.3855 44.2017 41.1056 44.077 41.8125L42.4666 50.936C42.2625 52.0927 41.2626 52.9338 40.087 52.9338H36.9797L35.8778 58.9443C35.668 60.0916 34.6681 60.9251 33.5001 60.9251H22.6056L22.598 60.9232ZM24.5788 38.9736L25.9907 31.0012L19.3149 38.9736H24.5788Z" fill="white"/>
<path d="M107.987 28.359C104.239 28.359 100.808 27.0057 98.1506 24.7659L91.8509 40.3724L88.9931 50.3596C88.256 53.0417 88.5168 55.3249 89.7699 57.1488C91.0268 58.9784 93.0719 60.0085 95.8484 60.207C97.8916 60.3525 99.7515 59.8536 101.379 58.7233C103.014 57.5854 104.127 55.9845 104.683 53.9735L112.177 27.7712C110.844 28.1511 109.44 28.359 107.985 28.359H107.987Z" fill="url(#paint0_linear_541_257)"/>
<path d="M155.636 12.8166C154.226 11.1704 152.19 10.335 149.582 10.335C147.662 10.335 145.995 10.9228 144.624 12.0814C143.252 13.2419 142.4 14.8031 142.088 16.7272L139.459 33.3525L134.21 18.1467C133.354 15.5781 132.142 13.6237 130.611 12.3385C129.025 11.0097 126.789 10.335 123.964 10.335C123.639 10.335 123.321 10.3463 123.007 10.3671C123.166 11.2517 123.255 12.1627 123.255 13.0926C123.255 19.0369 119.855 24.1855 114.895 26.7069L108.597 48.7246L108.125 51.7317C107.715 54.2946 108.221 56.4304 109.629 58.0767C111.037 59.7249 113.073 60.5603 115.683 60.5603C117.606 60.5603 119.284 59.9611 120.677 58.7798C122.068 57.5966 122.932 56.0241 123.244 54.1056L126.118 36.1498L132.038 53.6048C132.773 55.7633 133.968 57.4757 135.588 58.6967C137.227 59.9328 139.304 60.5603 141.759 60.5603C144.647 60.5603 146.995 59.7665 148.735 58.2015C150.455 56.6573 151.552 54.5347 151.992 51.8848L157.141 19.1636C157.551 16.6025 157.044 14.4686 155.634 12.8185L155.636 12.8166Z" fill="url(#paint1_linear_541_257)"/>
<path d="M92.7204 13.0926C92.7204 12.244 92.7922 11.4104 92.9264 10.5996C92.2498 10.4238 91.5221 10.335 90.7396 10.335C88.8268 10.335 87.2524 10.8302 86.0597 11.8055C84.9143 12.741 84.009 14.1699 83.372 16.0298L76.8569 34.1633L76.0838 19.0105C75.9364 16.3492 75.1104 14.2229 73.6286 12.6919C72.1146 11.1269 69.9108 10.335 67.0757 10.335C64.6904 10.335 62.7644 10.9171 61.3544 12.0644C60.0011 13.1682 58.9218 14.7823 58.1507 16.8577L51.5448 34.3599L50.9853 17.9161C50.8833 15.6745 50.1291 13.8354 48.7437 12.4481C48.67 12.3744 48.5944 12.3063 48.5169 12.2402L47.0955 10.9681C46.8423 10.7413 46.4397 10.902 46.4132 11.2403L46.2639 13.0605C46.2488 13.1758 46.2242 13.3648 46.211 13.4801L42.0244 37.4842L43.3229 37.711C44.8841 37.9832 46.1996 39.2514 46.4 41.0149C46.4378 41.357 46.4151 41.7048 46.3546 42.0431L44.7462 51.1628C44.4305 52.9508 42.8844 54.2474 41.068 54.2474H39.263C38.8018 54.2474 38.5126 54.7445 38.7413 55.1452L39.3518 56.2169C39.7299 56.8803 40.1627 57.47 40.6371 57.9633C42.2796 59.6833 44.6176 60.5565 47.587 60.5565C50.2803 60.5565 52.5069 59.963 54.2042 58.7912C55.9015 57.6174 57.1603 55.9504 57.9503 53.8297L63.8663 37.8792L64.524 51.0891C64.6696 54.1567 65.5693 56.5231 67.1966 58.1259C68.8353 59.74 71.2528 60.5584 74.379 60.5584C76.7718 60.5584 78.7451 60.0292 80.2477 58.9859C81.7371 57.952 82.9146 56.3832 83.7481 54.323L96.3872 23.0099C94.1039 20.3411 92.7223 16.8784 92.7223 13.0907L92.7204 13.0926Z" fill="url(#paint2_linear_541_257)"/>
<path d="M107.986 26.1815C115.216 26.1815 121.077 20.3204 121.077 13.0908C121.077 5.86117 115.216 0 107.986 0C100.757 0 94.8956 5.86117 94.8956 13.0908C94.8956 20.3204 100.757 26.1815 107.986 26.1815ZM103.227 17.1658C103.32 16.9862 103.422 16.7783 103.65 16.7991C104.892 17.4569 107.712 18.4303 108.988 17.1185C110.003 16.0752 109.107 15.1075 108.211 14.6406C107.049 14.0358 105.83 13.7636 104.807 12.8885C102.598 10.9984 103.454 7.52256 106.272 6.18816C106.616 6.02372 107.648 5.77233 107.741 5.41889C107.869 4.92936 107.839 4.35099 107.941 3.87468C108.009 3.55715 108.194 3.4721 108.499 3.44186C108.807 3.41162 109.92 3.40783 110.15 3.52502C110.623 3.76506 110.005 5.20153 110.372 5.47937C110.544 5.60979 111.207 5.66082 111.466 5.72319C111.831 5.81013 112.982 6.13334 113.156 6.42253C113.214 6.51892 113.233 6.65689 113.212 6.77408C113.175 6.98577 112.521 8.59991 112.394 8.7738C112.33 8.86263 112.245 8.94012 112.135 8.95147C111.876 8.97793 111.124 8.57156 110.799 8.47705C109.884 8.21055 107.926 7.93082 107.253 8.96091C106.576 9.99479 107.673 10.6601 108.421 11.0306C109.886 11.7582 111.43 12.0815 112.334 13.5557C113.742 15.8578 112.419 18.9103 109.74 19.9745C109.417 20.103 108.807 20.1937 108.604 20.4829C108.376 20.8099 108.442 21.8532 108.315 22.3087C108.24 22.5809 108.085 22.6773 107.829 22.7605H106.236C105.559 22.5809 105.947 21.6075 105.96 21.0443C105.966 20.7229 105.971 20.5812 105.663 20.4905C104.994 20.2958 104.308 20.258 103.622 20.0066C103.286 19.8837 102.456 19.5813 102.482 19.1542C102.499 18.8782 103.068 17.4758 103.227 17.1658Z" fill="url(#paint3_linear_541_257)"/>
<defs>
<linearGradient id="paint0_linear_541_257" x1="90.7924" y1="62.5205" x2="114.08" y2="12.1137" gradientUnits="userSpaceOnUse">
<stop stop-color="#B03200"/>
<stop offset="1" stop-color="#FC7610"/>
</linearGradient>
<linearGradient id="paint1_linear_541_257" x1="117.311" y1="74.7719" x2="140.598" y2="24.3651" gradientUnits="userSpaceOnUse">
<stop stop-color="#B03200"/>
<stop offset="1" stop-color="#FC7610"/>
</linearGradient>
<linearGradient id="paint2_linear_541_257" x1="58.2754" y1="47.4979" x2="81.5632" y2="-2.90889" gradientUnits="userSpaceOnUse">
<stop stop-color="#B03200"/>
<stop offset="1" stop-color="#FC7610"/>
</linearGradient>
<linearGradient id="paint3_linear_541_257" x1="86.1426" y1="60.3732" x2="109.43" y2="9.96644" gradientUnits="userSpaceOnUse">
<stop stop-color="#B03200"/>
<stop offset="1" stop-color="#FC7610"/>
</linearGradient>
</defs>
</svg>
