<svg width="236" height="159" viewBox="0 0 236 159" fill="none" xmlns="http://www.w3.org/2000/svg">
<path d="M235.634 2.08624C235.681 1.53602 235.274 1.05136 234.724 1.00373L225.757 0.227525C225.207 0.179894 224.722 0.587328 224.675 1.13755C224.627 1.68778 225.034 2.17244 225.585 2.22007L233.555 2.91003L232.865 10.8802C232.817 11.4304 233.225 11.9151 233.775 11.9627C234.325 12.0104 234.81 11.6029 234.857 11.0527L235.634 2.08624ZM5.09765 28.2781C7.09554 21.3763 10.6646 17.0633 15.508 14.5423C20.3974 11.9974 26.7012 11.2177 34.2602 11.6468C49.4205 12.5076 69.0322 18.1703 91.2251 23.2869C135.426 33.4776 189.378 41.3537 235.281 2.76546L233.994 1.23454C188.896 39.1463 135.848 31.5224 91.6744 21.3381C69.6798 16.2672 49.7602 10.5237 34.3736 9.65005C26.6591 9.21204 19.9355 9.98309 14.5846 12.7682C9.18783 15.5773 5.30369 20.3737 3.17653 27.7219L5.09765 28.2781ZM41.5992 107C41.9767 106.074 41.9769 106.074 41.977 106.074C41.9767 106.074 41.9766 106.074 41.9761 106.073C41.975 106.073 41.9732 106.072 41.9705 106.071C41.9653 106.069 41.9567 106.065 41.9451 106.061C41.9217 106.051 41.8857 106.036 41.8374 106.015C41.741 105.974 41.5958 105.911 41.4056 105.826C41.0252 105.656 40.4651 105.397 39.7555 105.046C38.3361 104.345 36.3202 103.278 33.9493 101.82C29.2044 98.9013 23.0557 94.4275 17.4219 88.2037C6.18587 75.7909 -3.04031 56.3907 5.09765 28.2781L3.17653 27.7219C-5.18568 56.6093 4.31917 76.7089 15.9392 89.5459C21.7335 95.9471 28.0441 100.536 32.9015 103.523C35.3317 105.018 37.4027 106.115 38.8698 106.84C39.6036 107.202 40.1867 107.472 40.5887 107.651C40.7898 107.741 40.9456 107.809 41.0523 107.854C41.1057 107.877 41.1468 107.895 41.1752 107.906C41.1894 107.912 41.2004 107.917 41.2081 107.92C41.212 107.922 41.2151 107.923 41.2173 107.924C41.2185 107.924 41.2195 107.925 41.2201 107.925C41.221 107.925 41.2216 107.926 41.5992 107Z" fill="white"/>
<path d="M36.1058 104.591L44.4202 100.607L41.3144 112.198L36.1058 104.591Z" fill="white"/>
<rect x="45.9731" y="94.8117" width="158" height="24" rx="3" transform="rotate(15 45.9731 94.8117)" fill="white"/>
<path d="M59.6967 107.624L58.0164 113.895L56.1966 113.407L57.8769 107.137L59.6967 107.624ZM61.1008 110.498L60.6722 112.097L54.7839 110.519L55.2125 108.92L61.1008 110.498ZM63.0039 115.939L64.0661 111.975C64.1282 111.744 64.1904 111.512 64.2525 111.28C64.3167 111.04 64.3847 110.802 64.4566 110.564C64.1416 110.72 63.8116 110.839 63.4668 110.92C63.1297 111.004 62.7916 111.029 62.4525 110.996L62.8058 109.029C63.0263 109.071 63.2639 109.081 63.5185 109.058C63.7808 109.037 64.0357 108.998 64.2831 108.94C64.5326 108.874 64.76 108.799 64.9652 108.713C65.1802 108.621 65.3488 108.517 65.4711 108.401L67.3372 108.901L65.2874 116.551L63.0039 115.939ZM82.1842 112.879L80.1343 120.53L78.0479 119.971L78.8679 116.91L79.5758 114.454L79.5526 114.448L76.3904 119.526L74.4895 119.017L74.3134 113.044L74.2786 113.035L73.6635 115.516L72.8435 118.576L70.7571 118.017L72.807 110.367L76.1452 111.261L76.2047 115.166L76.1803 116.787L76.2035 116.793L76.9929 115.377L78.9966 112.025L82.1842 112.879ZM86.4113 114.012L84.3615 121.662L81.9969 121.029L84.0467 113.379L86.4113 114.012ZM89.081 121.026L92.7206 122.001L92.2454 123.775L86.2412 122.166L88.2911 114.516L90.6557 115.149L89.081 121.026ZM102.971 118.449L100.922 126.099L98.5454 125.463L100.595 117.813L102.971 118.449ZM98.1147 117.148L96.0649 124.798L93.7003 124.165L95.7501 116.514L98.1147 117.148ZM101.114 121.07L100.639 122.843L95.6429 121.505L96.1181 119.731L101.114 121.07ZM110.057 128.547L107.623 127.895L107.619 126.192L105.289 125.568L104.423 127.038L102.059 126.404L106.682 119.444L109.522 120.205L110.057 128.547ZM106.093 124.143L107.647 124.56L107.634 121.5L106.093 124.143ZM111.141 117.918C111.015 118.356 110.843 118.703 110.625 118.96C110.41 119.208 110.17 119.376 109.907 119.463C109.653 119.544 109.399 119.55 109.144 119.482C108.927 119.424 108.746 119.342 108.601 119.237C108.465 119.126 108.345 119.016 108.242 118.905C108.149 118.789 108.061 118.687 107.977 118.598C107.893 118.509 107.797 118.45 107.689 118.421C107.573 118.39 107.471 118.417 107.382 118.501C107.295 118.577 107.212 118.716 107.133 118.918L105.881 118.583C106.081 117.932 106.369 117.488 106.748 117.25C107.136 117.006 107.551 116.943 107.991 117.061C108.2 117.117 108.369 117.196 108.499 117.297C108.63 117.398 108.734 117.505 108.811 117.616C108.899 117.723 108.981 117.819 109.057 117.906C109.141 117.995 109.237 118.053 109.345 118.082C109.469 118.116 109.57 118.093 109.649 118.015C109.738 117.931 109.821 117.788 109.901 117.585L111.141 117.918ZM116.521 121.956C117.317 122.169 117.955 122.51 118.434 122.978C118.923 123.44 119.24 124.005 119.384 124.673C119.535 125.343 119.5 126.092 119.279 126.919C119.057 127.745 118.713 128.411 118.247 128.916C117.788 129.422 117.23 129.757 116.574 129.921C115.927 130.079 115.205 130.051 114.409 129.838C113.621 129.627 112.979 129.289 112.482 128.824C111.995 128.354 111.676 127.784 111.524 127.114C111.372 126.444 111.407 125.696 111.629 124.869C111.85 124.042 112.194 123.376 112.661 122.872C113.127 122.367 113.688 122.037 114.342 121.881C115.007 121.72 115.733 121.745 116.521 121.956ZM116.037 123.764C115.72 123.679 115.436 123.69 115.183 123.796C114.941 123.897 114.724 124.087 114.533 124.367C114.35 124.65 114.193 125.034 114.063 125.521C113.935 126 113.878 126.412 113.894 126.755C113.919 127.093 114.01 127.37 114.168 127.587C114.335 127.797 114.577 127.945 114.894 128.03C115.203 128.112 115.483 128.104 115.733 128.006C115.985 127.899 116.202 127.705 116.386 127.423C116.571 127.133 116.728 126.749 116.856 126.27C116.987 125.783 117.043 125.371 117.026 125.035C117.008 124.699 116.915 124.426 116.748 124.216C116.583 123.997 116.346 123.847 116.037 123.764ZM128.974 125.417C130.172 125.738 130.995 126.314 131.442 127.147C131.89 127.979 131.951 129.005 131.623 130.226C131.298 131.44 130.733 132.298 129.927 132.803C129.123 133.3 128.122 133.388 126.924 133.067L123.412 132.126L125.462 124.476L128.974 125.417ZM127.097 131.262C127.669 131.415 128.112 131.352 128.428 131.072C128.745 130.784 128.999 130.285 129.189 129.574C129.38 128.863 129.409 128.308 129.276 127.908C129.145 127.5 128.793 127.219 128.221 127.066L127.364 126.836L126.239 131.032L127.097 131.262ZM132.184 134.476L134.234 126.826L140.4 128.478L139.925 130.252L136.123 129.233L135.791 130.473L138.828 131.287L138.387 132.933L135.35 132.119L135.024 133.336L138.976 134.396L138.501 136.169L132.184 134.476ZM152.585 131.743L147.892 138.685L145.087 137.934L144.494 129.575L146.963 130.237L147.015 134.959L147.008 136.56L147.774 135.187L150.197 131.103L152.585 131.743ZM156.112 132.688L154.062 140.338L151.697 139.705L153.747 132.055L156.112 132.688ZM155.942 140.842L157.992 133.192L164.158 134.844L163.683 136.618L159.881 135.599L159.549 136.839L162.586 137.653L162.145 139.299L159.108 138.485L158.782 139.702L162.734 140.761L162.259 142.535L155.942 140.842ZM165.168 143.314L165.027 135.077L167.577 135.76L167.108 141.822L169.86 136.372L171.947 136.931L171.673 143.007L174.265 137.552L176.722 138.211L172.482 145.274L169.931 144.591L170.065 141.123L170.265 139.127L170.23 139.117L169.405 140.946L167.787 144.016L165.168 143.314ZM181.097 139.259C181.824 139.454 182.442 139.727 182.952 140.079C183.465 140.423 183.879 140.853 184.197 141.369L182.758 142.611C182.489 142.224 182.179 141.897 181.829 141.629C181.488 141.355 181.082 141.156 180.611 141.029C180.371 140.965 180.172 140.936 180.012 140.943C179.853 140.951 179.727 140.987 179.635 141.054C179.553 141.114 179.498 141.195 179.471 141.295C179.438 141.419 179.484 141.539 179.61 141.656C179.744 141.774 179.938 141.901 180.192 142.035L181.28 142.612C182.005 142.997 182.51 143.414 182.796 143.863C183.083 144.305 183.147 144.823 182.988 145.418C182.832 145.998 182.556 146.441 182.159 146.749C181.77 147.059 181.298 147.243 180.744 147.301C180.19 147.36 179.596 147.304 178.962 147.135C178.46 147 177.983 146.818 177.531 146.59C177.086 146.363 176.692 146.104 176.347 145.813C176.005 145.514 175.726 145.195 175.51 144.856L176.95 143.564C177.105 143.821 177.311 144.071 177.569 144.314C177.829 144.549 178.116 144.759 178.431 144.943C178.747 145.126 179.063 145.261 179.379 145.346C179.604 145.406 179.79 145.435 179.94 145.434C180.099 145.427 180.22 145.393 180.302 145.332C180.385 145.271 180.441 145.187 180.47 145.079C180.505 144.947 180.483 144.83 180.403 144.725C180.325 144.614 180.156 144.489 179.894 144.353L178.697 143.722C178.304 143.517 177.952 143.286 177.64 143.029C177.328 142.771 177.102 142.47 176.962 142.126C176.832 141.777 176.831 141.366 176.957 140.895C177.091 140.393 177.346 139.985 177.72 139.671C178.094 139.357 178.569 139.161 179.144 139.083C179.72 139.006 180.371 139.064 181.097 139.259Z" fill="#061C3D"/>
</svg>
